<?xml version="1.0" standalone="no"?>
<!DOCTYPE svg PUBLIC "-//W3C//DTD SVG 20010904//EN"
 "http://www.w3.org/TR/2001/REC-SVG-20010904/DTD/svg10.dtd">
<svg version="1.0" xmlns="http://www.w3.org/2000/svg"
 width="260.000000pt" height="260.000000pt" viewBox="0 0 260.000000 260.000000"
 preserveAspectRatio="xMidYMid meet">
<metadata>
Created by potrace 1.14, written by Peter Selinger 2001-2017
</metadata>
<g transform="translate(0.000000,260.000000) scale(0.100000,-0.100000)"
fill="#000000" stroke="none">
<path d="M1150 2593 c-288 -44 -515 -147 -713 -323 -289 -256 -441 -608 -432
-1000 2 -80 6 -156 9 -170 3 -14 11 -50 17 -80 84 -410 391 -769 797 -931 181
-72 451 -105 641 -78 578 82 1022 516 1115 1090 14 83 15 332 2 394 -4 17 -11
55 -17 85 -47 238 -189 485 -382 669 -179 169 -447 300 -692 338 -40 6 -313
11 -345 6z m330 -230 c227 -39 416 -138 581 -302 164 -164 265 -359 307 -592
17 -93 8 -323 -17 -417 -94 -358 -325 -623 -656 -755 -123 -49 -228 -69 -370
-73 -304 -7 -572 100 -786 315 -47 47 -104 113 -126 146 -40 59 -113 195 -113
210 0 4 -7 21 -15 38 -36 80 -58 201 -60 339 -4 245 53 442 187 641 53 79 195
222 275 275 235 159 523 222 793 175z"/>
<path d="M1109 2036 c-147 -39 -261 -107 -367 -221 -50 -53 -132 -172 -132
-191 0 -3 -9 -24 -19 -47 -37 -81 -54 -190 -48 -305 5 -113 6 -119 31 -201 73
-247 301 -456 563 -517 63 -14 258 -13 325 2 139 32 252 91 354 187 107 99
174 207 216 346 27 86 33 300 12 381 -40 152 -101 259 -214 371 -71 71 -103
94 -181 133 -124 61 -217 84 -349 85 -80 0 -126 -5 -191 -23z m302 -206 c139
-26 298 -145 366 -276 116 -219 73 -477 -107 -645 -168 -158 -402 -194 -607
-94 -188 93 -303 276 -303 485 0 146 54 275 160 380 132 132 304 185 491 150z"/>
<path d="M1251 1487 c-61 -12 -125 -78 -139 -141 -15 -72 2 -130 53 -181 84
-84 209 -78 285 13 76 92 45 239 -61 294 -44 22 -82 27 -138 15z"/>
</g>
</svg>
